  <svg viewBox="0 0 48 48" class="fill-current">
    <path
      d="M24 4.5C20.1433 4.5 16.3731 5.64366 13.1664 7.78634C9.95963 9.92903 7.46027 12.9745 5.98436 16.5377C4.50845 20.1008 4.12228 24.0216 4.8747 27.8043C5.62711 31.5869 7.4843 35.0615 10.2114 37.7886C12.9386 40.5157 16.4131 42.3729 20.1957 43.1253C23.9784 43.8777 27.8992 43.4916 31.4623 42.0157C35.0255 40.5397 38.071 38.0404 40.2137 34.8336C42.3564 31.6269 43.5 27.8567 43.5 24C43.4946 18.83 41.4383 13.8732 37.7826 10.2174C34.1268 6.56167 29.1701 4.50546 24 4.5ZM24 40.5C20.7366 40.5 17.5465 39.5323 14.8331 37.7192C12.1197 35.9062 10.0048 33.3293 8.756 30.3143C7.50715 27.2993 7.1804 23.9817 7.81705 20.781C8.45371 17.5803 10.0252 14.6403 12.3327 12.3327C14.6403 10.0252 17.5803 8.4537 20.781 7.81704C23.9817 7.18039 27.2993 7.50714 30.3143 8.75599C33.3293 10.0048 35.9062 12.1197 37.7193 14.8331C39.5323 17.5465 40.5 20.7366 40.5 24C40.495 28.3745 38.7551 32.5685 35.6618 35.6618C32.5685 38.7551 28.3746 40.495 24 40.5ZM27 33C27 33.3978 26.842 33.7794 26.5607 34.0607C26.2794 34.342 25.8978 34.5 25.5 34.5C24.7044 34.5 23.9413 34.1839 23.3787 33.6213C22.8161 33.0587 22.5 32.2957 22.5 31.5V24C22.1022 24 21.7207 23.842 21.4394 23.5607C21.158 23.2794 21 22.8978 21 22.5C21 22.1022 21.158 21.7206 21.4394 21.4393C21.7207 21.158 22.1022 21 22.5 21C23.2957 21 24.0587 21.3161 24.6213 21.8787C25.1839 22.4413 25.5 23.2044 25.5 24V31.5C25.8978 31.5 26.2794 31.658 26.5607 31.9393C26.842 32.2206 27 32.6022 27 33ZM21 15.75C21 15.305 21.132 14.87 21.3792 14.5C21.6264 14.13 21.9778 13.8416 22.389 13.6713C22.8001 13.501 23.2525 13.4564 23.689 13.5432C24.1254 13.6301 24.5263 13.8443 24.841 14.159C25.1557 14.4737 25.37 14.8746 25.4568 15.311C25.5436 15.7475 25.499 16.1999 25.3287 16.611C25.1584 17.0222 24.8701 17.3736 24.5 17.6208C24.13 17.868 23.695 18 23.25 18C22.6533 18 22.081 17.7629 21.659 17.341C21.2371 16.919 21 16.3467 21 15.75Z"
    />
  </svg>