<svg width="32" height="32" viewBox="0 0 32 32" fill="none" xmlns="http://www.w3.org/2000/svg">
    <path
        d="M13.5996 28.6251L10.6676 23.3519C10.4066 22.8677 10.3377 22.2943 10.4761 21.7568C10.6145 21.2192 10.9489 20.7613 11.4062 20.4828C11.8636 20.2043 12.4069 20.1278 12.9175 20.2702C13.428 20.4126 13.8645 20.7622 14.1316 21.2427L15.9996 24.4066V13.0165C15.9996 12.4571 16.2103 11.9206 16.5854 11.525C16.9605 11.1295 17.4692 10.9072 17.9996 10.9072C18.5301 10.9072 19.0388 11.1295 19.4138 11.525C19.7889 11.9206 19.9996 12.4571 19.9996 13.0165V18.9225C19.9996 18.3631 20.2103 17.8266 20.5854 17.431C20.9605 17.0354 21.4692 16.8132 21.9996 16.8132C22.5301 16.8132 23.0388 17.0354 23.4138 17.431C23.7889 17.8266 23.9996 18.3631 23.9996 18.9225V20.6099C23.9996 20.0505 24.2103 19.514 24.5854 19.1184C24.9605 18.7228 25.4692 18.5006 25.9996 18.5006C26.5301 18.5006 27.0388 18.7228 27.4138 19.1184C27.7889 19.514 27.9996 20.0505 27.9996 20.6099V24.4066C27.9996 26.9377 27.1996 28.6251 27.1996 28.6251"
        stroke="black" stroke-width="1.5" stroke-linecap="round" stroke-linejoin="round" />
    <path d="M12 3.79688H15.6V7.59357" stroke="black" stroke-width="1.5" stroke-linecap="round"
        stroke-linejoin="round" />
    <path d="M10.8008 8.85913L15.6008 3.79688" stroke="black" stroke-width="1.5"
        stroke-linecap="round" stroke-linejoin="round" />
    <path d="M7.19961 16.452H3.59961V12.6553" stroke="black" stroke-width="1.5"
        stroke-linecap="round" stroke-linejoin="round" />
    <path d="M8.39961 11.3896L3.59961 16.4519" stroke="black" stroke-width="1.5"
        stroke-linecap="round" stroke-linejoin="round" />
</svg>
    